HIERARCHY
ROOT Hips
{
	OFFSET 0.000000 83.214638 0.000000
	CHANNELS 6 Xposition Yposition Zposition Xrotation Yrotation Zrotation
	JOINT Pelvis
	{
		OFFSET 0.000000 0.000000 0.000000
		CHANNELS 3 Xrotation Yrotation Zrotation
		JOINT LeftUpLeg
		{
			OFFSET 8.479700 -4.795502 -0.379100
			CHANNELS 3 Xrotation Yrotation Zrotation
			JOINT LeftLeg
			{
				OFFSET 0.024144 -32.555107 0.112900
				CHANNELS 3 Xrotation Yrotation Zrotation
				JOINT LeftFoot
				{
					OFFSET -0.024144 -32.638630 -3.012600
					CHANNELS 3 Xrotation Yrotation Zrotation
					JOINT LeftToeBase
					{
						OFFSET 0.970200 -13.225400 11.864200
						CHANNELS 3 Xrotation Yrotation Zrotation
						End Site
						{
							OFFSET 0.000000 12.319262 0.000000
						}
					}
					JOINT LFootTongue
					{
						OFFSET 1.142400 -1.059800 6.665200
						CHANNELS 3 Xrotation Yrotation Zrotation
						End Site
						{
							OFFSET 0.000000 12.319262 0.000000
						}
					}
				}
				JOINT LeftPantLeg
				{
					OFFSET 0.918482 -16.533964 -2.284700
					CHANNELS 3 Xrotation Yrotation Zrotation
					End Site
					{
						OFFSET 0.350399 24.744368 0.000000
					}
				}
			}
		}
		JOINT RightUpLeg
		{
			OFFSET -8.479700 -4.795502 -0.379100
			CHANNELS 3 Xrotation Yrotation Zrotation
			JOINT RightLeg
			{
				OFFSET -0.023144 -32.555092 0.112900
				CHANNELS 3 Xrotation Yrotation Zrotation
				JOINT RightFoot
				{
					OFFSET 0.023144 -32.638641 -3.012700
					CHANNELS 3 Xrotation Yrotation Zrotation
					JOINT RightToeBase
					{
						OFFSET -0.970200 -13.225400 11.864200
						CHANNELS 3 Xrotation Yrotation Zrotation
						End Site
						{
							OFFSET 0.000000 12.319244 0.000000
						}
					}
					JOINT RFootTongue
					{
						OFFSET -1.142200 -1.059800 6.665200
						CHANNELS 3 Xrotation Yrotation Zrotation
						End Site
						{
							OFFSET 0.000000 12.319243 0.000000
						}
					}
				}
				JOINT RightPantLeg
				{
					OFFSET -0.919482 -16.533978 -2.284800
					CHANNELS 3 Xrotation Yrotation Zrotation
					End Site
					{
						OFFSET -0.350400 24.744419 0.000000
					}
				}
			}
		}
	}
	JOINT Spine
	{
		OFFSET 0.000000 7.722000 1.166200
		CHANNELS 3 Xrotation Yrotation Zrotation
		JOINT Spine1
		{
			OFFSET 0.000000 12.024101 0.248800
			CHANNELS 3 Xrotation Yrotation Zrotation
			JOINT Spine2
			{
				OFFSET 0.000000 11.502998 -0.491200
				CHANNELS 3 Xrotation Yrotation Zrotation
				JOINT Neck
				{
					OFFSET 0.000000 18.430702 -3.123100
					CHANNELS 3 Xrotation Yrotation Zrotation
					JOINT Head
					{
						OFFSET 0.000000 9.051102 1.034000
						CHANNELS 3 Xrotation Yrotation Zrotation
						JOINT HairB
						{
							OFFSET 0.208400 24.786102 24.822300
							CHANNELS 3 Xrotation Yrotation Zrotation
							End Site
							{
								OFFSET 0.000000 32.263779 0.000000
							}
						}
						JOINT HairA
						{
							OFFSET -7.081100 24.428299 23.196600
							CHANNELS 3 Xrotation Yrotation Zrotation
							End Site
							{
								OFFSET 0.000000 32.263779 0.000000
							}
						}
						JOINT Hat
						{
							OFFSET 16.728800 15.048294 -15.439601
							CHANNELS 3 Xrotation Yrotation Zrotation
							End Site
							{
								OFFSET 0.000000 32.263779 0.000000
							}
						}
					}
				}
				JOINT LeftShoulder
				{
					OFFSET 6.197800 13.665199 -4.064700
					CHANNELS 3 Xrotation Yrotation Zrotation
					JOINT LeftArm
					{
						OFFSET 7.778100 -0.187103 -1.709300
						CHANNELS 3 Xrotation Yrotation Zrotation
						JOINT LeftForeArm
						{
							OFFSET 22.049376 0.000000 0.000000
							CHANNELS 3 Xrotation Yrotation Zrotation
							JOINT LeftHand
							{
								OFFSET 23.009392 0.000000 0.000000
								CHANNELS 3 Xrotation Yrotation Zrotation
								JOINT LeftHandThumb1
								{
									OFFSET 3.507191 -2.063065 3.133727
									CHANNELS 3 Xrotation Yrotation Zrotation
									JOINT LeftHandThumb2
									{
										OFFSET 3.101337 -1.790558 1.790558
										CHANNELS 3 Xrotation Yrotation Zrotation
										JOINT LeftHandThumb3
										{
											OFFSET 3.058640 -1.765907 1.765906
											CHANNELS 3 Xrotation Yrotation Zrotation
											End Site
											{
												OFFSET -0.415260 3.926476 -0.049563
											}
										}
									}
								}
								JOINT LeftHandIndex1
								{
									OFFSET 11.334419 -0.901459 3.706815
									CHANNELS 3 Xrotation Yrotation Zrotation
									JOINT LeftHandIndex2
									{
										OFFSET 3.283112 0.000000 0.000000
										CHANNELS 3 Xrotation Yrotation Zrotation
										JOINT LeftHandIndex3
										{
											OFFSET 3.323853 0.000000 0.000000
											CHANNELS 3 Xrotation Yrotation Zrotation
											End Site
											{
												OFFSET -1.135597 3.097809 0.402452
											}
										}
									}
								}
								JOINT LeftHandMiddle1
								{
									OFFSET 11.335861 0.000000 0.000000
									CHANNELS 3 Xrotation Yrotation Zrotation
									JOINT LeftHandMiddle2
									{
										OFFSET 3.410492 0.000000 0.000000
										CHANNELS 3 Xrotation Yrotation Zrotation
										JOINT LeftHandMiddle3
										{
											OFFSET 3.312172 0.000000 0.000000
											CHANNELS 3 Xrotation Yrotation Zrotation
											End Site
											{
												OFFSET -1.150200 3.080154 0.400270
											}
										}
									}
								}
								JOINT LeftHandRing1
								{
									OFFSET 11.514786 -0.013176 -3.003090
									CHANNELS 3 Xrotation Yrotation Zrotation
									JOINT LeftHandRing2
									{
										OFFSET 3.053307 0.000000 0.000000
										CHANNELS 3 Xrotation Yrotation Zrotation
										JOINT LeftHandRing3
										{
											OFFSET 3.295807 0.000000 0.000000
											CHANNELS 3 Xrotation Yrotation Zrotation
											End Site
											{
												OFFSET -1.281006 3.013344 0.375733
											}
										}
									}
								}
								JOINT LeftHandPinky1
								{
									OFFSET 10.518692 -0.960396 -5.730441
									CHANNELS 3 Xrotation Yrotation Zrotation
									JOINT LeftHandPinky2
									{
										OFFSET 2.861649 0.000000 0.000000
										CHANNELS 3 Xrotation Yrotation Zrotation
										JOINT LeftHandPinky3
										{
											OFFSET 2.863380 0.000000 0.000000
											CHANNELS 3 Xrotation Yrotation Zrotation
											End Site
											{
												OFFSET -0.843597 2.711159 0.369971
											}
										}
									}
								}
							}
							JOINT LSleeve
							{
								OFFSET 6.676277 -0.344902 -1.011730
								CHANNELS 3 Xrotation Yrotation Zrotation
								End Site
								{
									OFFSET 0.000000 14.885353 0.000000
								}
							}
						}
					}
				}
				JOINT RightShoulder
				{
					OFFSET -6.197800 13.665199 -4.064700
					CHANNELS 3 Xrotation Yrotation Zrotation
					JOINT RightArm
					{
						OFFSET -7.778100 -0.187103 -1.709300
						CHANNELS 3 Xrotation Yrotation Zrotation
						JOINT RightForeArm
						{
							OFFSET -22.049376 0.000000 0.000000
							CHANNELS 3 Xrotation Yrotation Zrotation
							JOINT RightHand
							{
								OFFSET -23.009392 0.000000 0.000000
								CHANNELS 3 Xrotation Yrotation Zrotation
								JOINT RightHandThumb1
								{
									OFFSET -3.507191 -2.063065 3.133727
									CHANNELS 3 Xrotation Yrotation Zrotation
									JOINT RightHandThumb2
									{
										OFFSET -3.101337 -1.790558 1.790558
										CHANNELS 3 Xrotation Yrotation Zrotation
										JOINT RightHandThumb3
										{
											OFFSET -3.058640 -1.765907 1.765906
											CHANNELS 3 Xrotation Yrotation Zrotation
											End Site
											{
												OFFSET 0.415260 3.926476 -0.049563
											}
										}
									}
								}
								JOINT RightHandIndex1
								{
									OFFSET -11.334419 -0.901459 3.706815
									CHANNELS 3 Xrotation Yrotation Zrotation
									JOINT RightHandIndex2
									{
										OFFSET -3.283112 0.000000 0.000000
										CHANNELS 3 Xrotation Yrotation Zrotation
										JOINT RightHandIndex3
										{
											OFFSET -3.323853 0.000000 0.000000
											CHANNELS 3 Xrotation Yrotation Zrotation
											End Site
											{
												OFFSET 1.135597 3.097809 0.402452
											}
										}
									}
								}
								JOINT RightHandMiddle1
								{
									OFFSET -11.335861 0.000000 0.000000
									CHANNELS 3 Xrotation Yrotation Zrotation
									JOINT RightHandMiddle2
									{
										OFFSET -3.410492 0.000000 0.000000
										CHANNELS 3 Xrotation Yrotation Zrotation
										JOINT RightHandMiddle3
										{
											OFFSET -3.312172 0.000000 0.000000
											CHANNELS 3 Xrotation Yrotation Zrotation
											End Site
											{
												OFFSET 1.150200 3.080154 0.400270
											}
										}
									}
								}
								JOINT RightHandRing1
								{
									OFFSET -11.514786 -0.013176 -3.003090
									CHANNELS 3 Xrotation Yrotation Zrotation
									JOINT RightHandRing2
									{
										OFFSET -3.053307 0.000000 0.000000
										CHANNELS 3 Xrotation Yrotation Zrotation
										JOINT RightHandRing3
										{
											OFFSET -3.295807 0.000000 0.000000
											CHANNELS 3 Xrotation Yrotation Zrotation
											End Site
											{
												OFFSET 1.281006 3.013344 0.375733
											}
										}
									}
								}
								JOINT RightHandPinky1
								{
									OFFSET -10.518692 -0.960396 -5.730441
									CHANNELS 3 Xrotation Yrotation Zrotation
									JOINT RightHandPinky2
									{
										OFFSET -2.861649 0.000000 0.000000
										CHANNELS 3 Xrotation Yrotation Zrotation
										JOINT RightHandPinky3
										{
											OFFSET -2.863380 0.000000 0.000000
											CHANNELS 3 Xrotation Yrotation Zrotation
											End Site
											{
												OFFSET 0.843597 2.711159 0.369971
											}
										}
									}
								}
							}
							JOINT RSleeve
							{
								OFFSET -6.676277 -0.344902 -1.011730
								CHANNELS 3 Xrotation Yrotation Zrotation
								End Site
								{
									OFFSET 0.000000 14.885353 0.000000
								}
							}
						}
					}
				}
				JOINT Backpack
				{
					OFFSET 0.000000 -2.471497 36.677502
					CHANNELS 3 Xrotation Yrotation Zrotation
					End Site
					{
						OFFSET 0.000000 20.427315 0.000000
					}
				}
				JOINT Hood
				{
					OFFSET 0.000000 18.754097 -10.431000
					CHANNELS 3 Xrotation Yrotation Zrotation
					JOINT Hood1
					{
						OFFSET 0.000000 -5.011002 -7.685901
						CHANNELS 3 Xrotation Yrotation Zrotation
						End Site
						{
							OFFSET 0.000000 9.175140 0.000000
						}
					}
				}
				JOINT LHoodieString
				{
					OFFSET 5.250500 16.397697 3.089900
					CHANNELS 3 Xrotation Yrotation Zrotation
					JOINT LHoodieString1
					{
						OFFSET 0.257700 -6.364304 3.694600
						CHANNELS 3 Xrotation Yrotation Zrotation
						JOINT LHoodieString2
						{
							OFFSET 0.000000 -9.643799 2.679100
							CHANNELS 3 Xrotation Yrotation Zrotation
							End Site
							{
								OFFSET 0.000000 10.009018 0.000000
							}
						}
					}
				}
				JOINT RHoodieString
				{
					OFFSET -5.250500 16.397697 3.089900
					CHANNELS 3 Xrotation Yrotation Zrotation
					JOINT RHoodieString1
					{
						OFFSET -0.257700 -6.364304 3.694600
						CHANNELS 3 Xrotation Yrotation Zrotation
						JOINT RHoodieString2
						{
							OFFSET 0.000000 -9.643799 2.679100
							CHANNELS 3 Xrotation Yrotation Zrotation
							End Site
							{
								OFFSET 0.000000 10.009018 0.000000
							}
						}
					}
				}
			}
			JOINT LBackpack_Strap
			{
				OFFSET 15.223200 -7.719803 -6.610900
				CHANNELS 3 Xrotation Yrotation Zrotation
				End Site
				{
					OFFSET 0.000000 16.040596 0.000000
				}
			}
			JOINT RBackpack_Strap
			{
				OFFSET -15.223000 -7.719803 -6.610900
				CHANNELS 3 Xrotation Yrotation Zrotation
				End Site
				{
					OFFSET 0.000000 16.040596 0.000000
				}
			}
		}
	}
	JOINT BoyFacialAnim_Joint
	{
		OFFSET 1.000000 -82.208099 -1.550900
		CHANNELS 3 Xrotation Yrotation Zrotation
		End Site
		{
			OFFSET 0.000000 30.012791 0.000000
		}
	}
}
MOTION
Frames: 5
Frame Time: 0.033333
-1.014098 77.605484 93.587646 -1.262878 2.619447 -0.898166 0.000000 -0.000000 0.000000 1.592123 12.210613 7.392857 42.103905 2.438085 0.213809 4.796775 0.088734 4.080579 0.000000 0.000001 -0.000000 0.000000 0.000001 -0.000000 0.000002 -0.000000 0.000001 -32.200094 -4.836883 1.409121 32.171325 -9.943009 -1.138932 0.185838 -17.008732 -2.016835 0.000000 0.000000 0.000000 0.000000 0.000000 0.000000 -0.000000 -0.000000 -0.000000 2.459527 -0.282145 0.465050 3.966381 -0.775016 0.754583 3.965460 -0.801203 0.727393 -16.561383 -0.523108 2.248431 1.092549 2.250800 -0.731190 -0.000001 0.000000 -0.000000 -0.000001 0.000000 -0.000000 -0.000001 0.000000 -0.000000 0.787059 0.415997 -7.923988 -24.323762 -37.446727 -73.398258 -0.000001 -13.222494 -0.000008 -4.560493 0.033609 -4.486718 -6.495092 10.883623 -2.404749 7.823058 26.483806 2.525905 -0.000000 -0.000001 0.000001 0.570840 4.742851 -23.976334 0.274243 1.773116 -17.582768 0.000000 0.000001 0.000002 0.570841 4.742853 -23.976331 0.274244 1.773103 -17.582790 0.000001 0.000002 0.000001 0.570849 4.742847 -23.976336 0.274240 1.773102 -17.582784 -0.000000 0.000002 -0.000002 0.570841 4.742838 -23.976334 0.274241 1.773111 -17.582754 -0.000004 -0.000001 -0.000000 0.000002 0.000004 -0.000003 0.081045 -5.178077 6.610692 -12.020783 -4.115911 72.660099 -0.000001 7.993256 0.000027 41.715032 2.134176 -0.326304 -6.901941 8.181171 -4.018452 17.884027 -16.407639 5.377331 -0.000000 0.000000 0.000001 0.089128 -2.899503 7.603658 0.093227 -0.928156 11.471233 -0.000000 -0.000000 0.000002 0.089123 -2.899495 7.603668 0.093231 -0.928166 11.471218 0.000008 -0.000001 -0.000000 0.089138 -2.899492 7.603665 0.093217 -0.928163 11.471210 -0.000005 0.000003 0.000003 0.089126 -2.899498 7.603657 0.093228 -0.928164 11.471217 -0.000003 -0.000001 0.000000 0.000000 0.000000 -0.000001 0.000000 -0.000000 0.000000 0.000000 -0.000000 0.000000 0.000000 -0.000000 0.000000 0.000000 -0.000000 0.000000 0.000000 -0.000000 0.000000 0.000000 0.000000 0.000000 0.000000 -0.000000 0.000000 0.000000 -0.000000 0.000000 0.000000 0.000000 0.000000 0.000001 -0.000000 -0.000000 0.000001 -0.000000 -0.000000 0.000000 -0.000000 0.000000 
-1.542351 77.822365 96.444229 -1.957455 2.055265 -1.405634 0.000000 0.000000 -0.000000 -4.159406 9.832591 8.266040 50.763632 3.909164 0.256976 13.545606 0.765997 6.280806 0.000002 0.000000 -0.000000 0.000002 0.000000 -0.000000 0.000000 0.000002 -0.000000 -29.696211 -4.862991 2.756643 34.064896 -9.958133 -1.137656 -3.437621 -16.493486 -1.910460 -0.000000 0.000002 -0.000000 -0.000000 0.000002 -0.000000 0.000000 -0.000000 0.000000 2.561915 -0.126377 0.787376 4.176325 -0.455465 0.552480 4.175771 -0.474148 0.536047 -16.726273 -0.635266 2.207958 1.472168 1.767054 -0.177574 0.000000 0.000000 -0.000000 0.000000 0.000000 -0.000000 0.000000 0.000000 -0.000000 0.777702 0.419485 -7.750161 -22.813810 -35.169436 -72.481237 -0.000001 -13.976273 -0.000006 -5.383261 0.668177 -4.379723 -6.466234 10.284551 -1.755779 7.758073 25.979635 2.489627 0.000002 0.000000 0.000000 0.540096 4.672779 -23.227436 0.255961 1.714407 -16.982328 -0.000000 -0.000001 -0.000004 0.540094 4.672768 -23.227441 0.255965 1.714405 -16.982330 0.000004 -0.000000 -0.000001 0.540097 4.672763 -23.227453 0.255969 1.714415 -16.982319 0.000003 -0.000000 -0.000004 0.540099 4.672761 -23.227438 0.255975 1.714412 -16.982314 0.000002 0.000000 0.000003 -0.000002 -0.000000 0.000001 0.070529 -5.194473 6.594041 -13.994958 -2.576695 73.234210 -0.000003 8.054732 0.000005 41.125672 3.373328 -0.812104 -6.901946 8.181173 -4.018457 17.991821 -16.814946 5.359584 0.000003 0.000001 -0.000003 0.107225 -3.022395 9.129480 0.102951 -0.974841 12.056545 0.000000 -0.000001 0.000003 0.107218 -3.022399 9.129476 0.102955 -0.974831 12.056552 0.000001 0.000001 0.000002 0.107234 -3.022395 9.129471 0.102954 -0.974826 12.056553 0.000001 -0.000001 0.000000 0.107226 -3.022393 9.129472 0.102945 -0.974833 12.056548 -0.000001 -0.000001 -0.000000 -0.000001 -0.000000 0.000001 -0.000000 0.000000 -0.000000 -0.000000 0.000000 -0.000000 -0.000000 0.000000 -0.000000 -0.000000 0.000000 -0.000000 -0.000000 0.000000 -0.000000 -0.000000 0.000000 -0.000000 -0.000000 0.000000 -0.000000 -0.000000 0.000000 -0.000000 -0.000000 0.000000 -0.000000 -0.000000 0.000000 0.000000 -0.000000 0.000000 0.000000 0.000000 0.000000 -0.000000 
-1.989185 78.289558 99.227287 -2.179190 1.463738 -1.421466 0.000000 0.000000 -0.000000 -10.386199 7.480590 8.175330 58.476760 4.545453 0.278275 15.777455 0.884834 5.931809 -0.000001 -0.000001 -0.000000 -0.000001 -0.000001 -0.000000 -0.000001 0.000002 -0.000001 -26.888778 -4.982970 3.382580 34.210444 -9.790914 -1.123862 -6.165067 -15.795760 -1.942333 -0.000000 0.000000 -0.000000 -0.000000 0.000000 -0.000000 0.000000 0.000001 0.000001 2.555816 0.123685 0.696555 4.216295 -0.077371 0.216371 4.216289 -0.085545 0.212698 -16.881412 -0.796354 2.070892 1.633708 0.949199 0.358670 -0.000000 -0.000000 0.000000 -0.000000 -0.000000 0.000000 -0.000000 -0.000000 0.000000 0.767904 0.423627 -7.524019 -21.559178 -32.717163 -71.845626 0.000004 -13.530684 0.000012 -7.041245 0.632625 -4.497673 -6.423969 9.683074 -1.102930 7.692363 25.470650 2.452523 -0.000003 -0.000000 0.000002 0.510043 4.601673 -22.472221 0.238164 1.655005 -16.376521 -0.000001 0.000001 -0.000002 0.510047 4.601677 -22.472209 0.238165 1.654995 -16.376550 0.000003 -0.000001 -0.000003 0.510054 4.601667 -22.472212 0.238157 1.654986 -16.376555 -0.000001 0.000002 0.000002 0.510055 4.601667 -22.472200 0.238152 1.654999 -16.376540 -0.000001 -0.000001 -0.000000 -0.000000 0.000002 -0.000000 0.072446 -5.254749 6.742747 -16.017010 -0.849817 73.551719 -0.000006 8.158816 0.000036 40.500163 4.749549 -1.305474 -6.901945 8.181174 -4.018453 18.101123 -17.227583 5.342372 0.000002 0.000001 -0.000003 0.128911 -3.146445 10.676468 0.113216 -1.021722 12.646103 -0.000001 0.000001 0.000002 0.128906 -3.146446 10.676481 0.113218 -1.021726 12.646102 0.000003 0.000001 0.000000 0.128913 -3.146438 10.676474 0.113211 -1.021727 12.646098 -0.000002 0.000001 0.000001 0.128908 -3.146440 10.676466 0.113216 -1.021732 12.646087 -0.000002 0.000001 0.000000 -0.000000 -0.000002 0.000001 0.000001 -0.000000 0.000000 0.000001 -0.000000 0.000000 0.000001 -0.000000 0.000000 0.000001 -0.000000 0.000000 0.000001 -0.000000 0.000000 0.000000 -0.000000 0.000000 0.000001 -0.000000 0.000000 0.000001 -0.000000 0.000000 0.000000 -0.000000 0.000000 -0.000000 0.000000 0.000000 -0.000000 0.000000 0.000000 0.000000 0.000000 -0.000000 
-2.354754 78.925064 102.000183 -2.091455 0.523044 -1.057040 0.000000 -0.000000 0.000000 -15.375231 6.462803 7.361329 62.086522 4.629756 0.278421 14.811552 0.769658 6.595772 0.000002 0.000000 0.000000 0.000002 0.000000 0.000000 0.000001 -0.000001 0.000000 -23.852928 -4.853830 3.525319 33.097089 -9.878865 -1.080891 -8.177509 -14.605115 -1.936491 -0.000000 0.000000 -0.000000 -0.000000 0.000000 -0.000000 -0.000000 -0.000000 -0.000000 2.514619 0.521080 0.284380 4.186628 0.614149 -0.259855 4.188545 0.618060 -0.239630 -16.602573 -0.996204 1.997256 1.331059 -0.054230 0.684577 -0.000000 0.000000 0.000000 -0.000000 0.000000 0.000000 -0.000000 0.000000 0.000000 0.758258 0.427805 -7.287288 -20.597588 -30.250959 -71.482984 -0.000009 -11.891196 0.000003 -9.353186 -0.130300 -4.903579 -6.399174 8.982453 -0.527100 7.634780 25.025197 2.419652 0.000000 -0.000000 0.000001 0.479658 4.526958 -21.683011 0.221260 1.596396 -15.780913 0.000001 -0.000001 -0.000002 0.479659 4.526949 -21.683018 0.221255 1.596402 -15.780922 -0.000002 -0.000001 0.000000 0.479661 4.526946 -21.683021 0.221257 1.596400 -15.780920 -0.000002 -0.000000 -0.000000 0.479659 4.526947 -21.683028 0.221258 1.596409 -15.780908 -0.000000 0.000000 0.000005 0.000001 -0.000000 0.000001 0.077732 -5.265698 6.801717 -17.818283 0.915629 73.784949 0.000001 8.223074 -0.000019 39.328701 6.444915 -1.691801 -6.901944 8.181176 -4.018455 18.211149 -17.642440 5.325898 0.000001 0.000003 -0.000001 0.153239 -3.266579 12.182414 0.126796 -1.080427 13.386032 0.000000 0.000001 0.000002 0.153238 -3.266570 12.182432 0.126786 -1.080439 13.386020 0.000002 0.000001 -0.000002 0.153248 -3.266569 12.182426 0.126786 -1.080435 13.386016 -0.000000 -0.000000 0.000002 0.153239 -3.266571 12.182411 0.126800 -1.080435 13.386025 -0.000003 -0.000001 0.000000 0.000000 -0.000000 -0.000002 -0.000000 -0.000000 -0.000000 -0.000000 -0.000000 -0.000000 -0.000000 -0.000000 -0.000000 -0.000000 -0.000000 -0.000000 -0.000000 -0.000000 0.000000 -0.000000 -0.000000 0.000000 -0.000000 -0.000000 -0.000000 -0.000000 -0.000000 0.000000 -0.000000 -0.000000 0.000000 0.000000 0.000000 -0.000000 0.000000 0.000000 -0.000000 0.000000 -0.000000 0.000000 
-2.621312 79.495087 104.724983 -1.952823 -0.897727 -0.614233 -0.000000 0.000000 0.000000 -19.725696 6.530093 6.723537 62.294863 5.228942 0.303795 13.523244 0.636421 7.011507 0.000003 0.000000 -0.000000 0.000003 0.000000 -0.000000 -0.000004 0.000000 0.000001 -20.843497 -4.837683 3.346351 31.733469 -10.010088 -1.000013 -9.921587 -12.910693 -1.829845 0.000000 0.000000 -0.000000 0.000000 0.000000 -0.000000 0.000000 -0.000001 0.000000 2.552924 1.013670 -0.081611 4.268749 1.626997 -0.825184 4.274691 1.644603 -0.769413 -16.139906 -1.192826 1.989708 0.975344 -0.997943 0.815829 -0.000000 0.000000 0.000000 -0.000000 0.000000 0.000000 -0.000000 0.000000 0.000000 0.749376 0.431436 -7.081653 -19.463937 -27.748116 -71.045387 0.000002 -10.690726 0.000015 -12.064687 -0.860200 -5.513495 -6.417265 8.088765 -0.094461 7.592393 24.697599 2.395232 0.000000 -0.000000 -0.000001 0.447845 4.445448 -20.827060 0.205441 1.539320 -15.202504 0.000000 -0.000000 0.000003 0.447840 4.445448 -20.827060 0.205442 1.539316 -15.202510 -0.000000 -0.000001 0.000002 0.447852 4.445439 -20.827065 0.205432 1.539322 -15.202512 0.000001 0.000001 0.000001 0.447848 4.445435 -20.827062 0.205431 1.539323 -15.202498 0.000002 -0.000000 0.000001 -0.000001 0.000003 -0.000001 0.060749 -5.280403 6.621282 -19.571912 2.759316 73.900912 -0.000003 8.275228 0.000004 37.628602 8.317946 -1.896587 -6.901942 8.181174 -4.018453 18.322309 -18.061259 5.310030 0.000003 0.000001 -0.000002 0.179185 -3.379756 13.609395 0.146828 -1.161417 14.410234 -0.000005 0.000000 0.000002 0.179182 -3.379756 13.609401 0.146838 -1.161420 14.410231 -0.000002 0.000001 -0.000002 0.179189 -3.379761 13.609390 0.146832 -1.161403 14.410255 -0.000003 0.000003 0.000001 0.179190 -3.379755 13.609386 0.146832 -1.161407 14.410236 -0.000004 0.000001 -0.000001 0.000000 -0.000002 -0.000000 -0.000000 -0.000000 0.000000 -0.000000 -0.000000 0.000000 -0.000000 -0.000000 0.000000 -0.000000 -0.000000 0.000000 -0.000000 -0.000000 0.000000 -0.000001 -0.000000 0.000000 -0.000000 -0.000000 0.000000 -0.000000 -0.000000 0.000000 -0.000001 -0.000000 0.000000 -0.000000 -0.000000 0.000000 -0.000000 -0.000000 0.000000 -0.000000 0.000000 0.000000 
